<svg width="47" height="47" viewBox="0 0 47 47" fill="none" xmlns="http://www.w3.org/2000/svg">
<path d="M23.25 0C10.4062 0 0 10.4062 0 23.25C0 36.0938 10.4062 46.5 23.25 46.5C36.0938 46.5 46.5 36.0938 46.5 23.25C46.5 10.4062 36.0938 0 23.25 0ZM23.25 42C12.8438 42 4.5 33.6562 4.5 23.25C4.5 12.9375 12.8438 4.5 23.25 4.5C33.5625 4.5 42 12.9375 42 23.25C42 33.6562 33.5625 42 23.25 42ZM28.9688 32.25C29.5312 32.625 30.1875 32.5312 30.5625 31.9688L32.3438 29.625C32.7188 29.0625 32.625 28.4062 32.0625 28.0312L25.875 23.4375V10.125C25.875 9.5625 25.3125 9 24.75 9H21.75C21.0938 9 20.625 9.5625 20.625 10.125V25.5938C20.625 25.875 20.7188 26.25 21 26.4375L28.9688 32.25Z" fill="#F7654A"/>
</svg>
