<svg width="18" height="15" viewBox="0 0 18 15" fill="none" xmlns="http://www.w3.org/2000/svg">
<path d="M18 4.56024C17.6987 4.89171 17.3571 5.18301 16.9955 5.43413C15.3181 6.56917 13.6306 7.71426 11.9933 8.89953C11.1496 9.5223 10.1049 10.2857 9.01005 10.2857H9H8.98996C7.89509 10.2857 6.85045 9.5223 6.0067 8.89953C4.36942 7.70421 2.68192 6.56917 1.01451 5.43413C0.642857 5.18301 0.301339 4.89171 0 4.56024V12.5357C0 13.4196 0.723214 14.1428 1.60714 14.1428H16.3929C17.2768 14.1428 18 13.4196 18 12.5357V4.56024ZM18 1.60712C18 0.723187 17.2667 -2.64645e-05 16.3929 -2.64645e-05H1.60714C0.532366 -2.64645e-05 0 0.843724 0 1.8281C0 2.74216 1.01451 3.87721 1.72768 4.35935C3.2846 5.44417 4.86161 6.52899 6.41853 7.62386C7.07143 8.07587 8.17634 8.99997 8.98996 8.99997H9H9.01005C9.82366 8.99997 10.9286 8.07587 11.5815 7.62386C13.1384 6.52899 14.7154 5.44417 16.2824 4.35935C17.1663 3.74662 18 2.73212 18 1.60712Z" fill="black"/>
</svg>
