<svg width="36" height="49" viewBox="0 0 36 49" fill="none" xmlns="http://www.w3.org/2000/svg">
<path d="M18 0C7.96875 0 0 8.15625 0 18C0 24.75 2.15625 26.8125 14.1562 45.9375C15.9375 48.75 19.9688 48.75 21.75 45.9375C33.75 26.8125 36 24.75 36 18C36 8.0625 27.8438 0 18 0ZM18 43.5C6 24.375 4.5 23.1562 4.5 18C4.5 10.5938 10.5 4.5 18 4.5C25.4062 4.5 31.5 10.5938 31.5 18C31.5 23.1562 30 24.1875 18 43.5ZM10.5 18C10.5 22.2188 13.7812 25.5 18 25.5C22.125 25.5 25.5 22.2188 25.5 18C25.5 13.875 22.125 10.5 18 10.5C13.7812 10.5 10.5 13.875 10.5 18Z" fill="#F7654A"/>
</svg>
