<svg width="49" height="49" viewBox="0 0 49 49" fill="none" xmlns="http://www.w3.org/2000/svg">
<path d="M45 2.4375L36.1875 0.46875C34.125 0 32.0625 1.03125 31.3125 2.90625L27.1875 12.4688C26.4375 14.1562 26.9062 16.2188 28.4062 17.4375L32.1562 20.5312C29.5312 25.4062 25.4062 29.4375 20.5312 32.1562L17.4375 28.4062C16.2188 26.9062 14.1562 26.4375 12.4688 27.1875L2.90625 31.2188C1.03125 32.0625 0 34.125 0.46875 36.1875L2.4375 45C2.90625 46.9688 4.6875 48.2812 6.65625 48.2812C29.625 48.2812 48.375 29.7188 48.375 6.65625C48.375 4.6875 46.9688 2.90625 45 2.4375ZM6.84375 43.7812L4.875 35.3438L14.0625 31.4062L19.3125 37.7812C28.5938 33.375 33.375 28.5938 37.7812 19.3125L31.4062 14.0625L35.3438 4.875L43.875 6.84375C43.7812 27.1875 27.1875 43.6875 6.84375 43.7812Z" fill="#F7654A"/>
</svg>
